<svg width="553" height="94" viewBox="0 0 553 94" fill="none" xmlns="http://www.w3.org/2000/svg">
<path d="M62.1875 23.9375L46.75 55.375H64.125L62.75 23.9375H62.1875ZM65.75 92L64.9375 74.0625H37.5625L28.75 92H0.8125L50.4375 1.8125H83.6875L92.9375 92H65.75ZM97.3775 65.4375H122.44C122.69 67.0625 123.461 68.5208 124.753 69.8125C126.044 71.1042 127.711 72.125 129.753 72.875C131.836 73.5833 134.107 73.9375 136.565 73.9375C139.148 73.9375 141.357 73.625 143.19 73C145.065 72.3333 146.503 71.4375 147.503 70.3125C148.544 69.1875 149.065 67.875 149.065 66.375C149.065 64.7083 148.419 63.3125 147.128 62.1875C145.878 61.0208 143.128 59.7917 138.878 58.5L129.44 55.625C121.898 53.3333 116.169 50.1458 112.253 46.0625C108.336 41.9375 106.378 36.7917 106.378 30.625C106.378 24.5 108.003 19.1667 111.253 14.625C114.503 10.0417 118.961 6.5 124.628 4C130.336 1.5 136.836 0.25 144.128 0.25C151.878 0.25 158.544 1.39583 164.128 3.6875C169.753 5.9375 174.065 9.1875 177.065 13.4375C180.107 17.6875 181.648 22.7917 181.69 28.75H157.503C157.461 26.9583 156.898 25.3958 155.815 24.0625C154.732 22.7292 153.232 21.6875 151.315 20.9375C149.44 20.1875 147.253 19.8125 144.753 19.8125C142.461 19.8125 140.44 20.1458 138.69 20.8125C136.982 21.4375 135.648 22.3125 134.69 23.4375C133.773 24.5208 133.315 25.7708 133.315 27.1875C133.315 28.9792 134.023 30.5417 135.44 31.875C136.898 33.1667 139.44 34.3542 143.065 35.4375L152.94 38.3125C161.023 40.6458 166.898 43.6875 170.565 47.4375C174.273 51.1458 176.128 56.25 176.128 62.75C176.128 69.0833 174.44 74.5625 171.065 79.1875C167.69 83.7708 163.003 87.3125 157.003 89.8125C151.003 92.3125 144.023 93.5625 136.065 93.5625C127.982 93.5625 121.044 92.4583 115.253 90.25C109.503 88.0417 105.086 84.8333 102.003 80.625C98.9608 76.4167 97.4192 71.3542 97.3775 65.4375ZM205.068 92H178.568L197.755 1.8125H224.255L205.068 92ZM271.258 23.9375L255.82 55.375H273.195L271.82 23.9375H271.258ZM274.82 92L274.008 74.0625H246.633L237.82 92H209.883L259.508 1.8125H292.758L302.008 92H274.82ZM344.76 92H318.26L332.948 22.8125H307.885L312.385 1.8125H389.01L384.51 22.8125H359.448L344.76 92ZM444.575 71L440.138 92H376.513L395.7 1.8125H459.263L454.763 22.8125H417.7L414.638 37.4375H449.388L445.325 56.4375H410.575L407.45 71H444.575ZM475.953 92H449.453L468.64 1.8125H495.14L487.265 38.6875H487.765L522.828 1.8125H552.828L512.578 44L532.703 92H503.703L490.453 58.875L480.828 69L475.953 92Z" fill="#1D1D1F"/>
</svg>
